<svg xmlns="http://www.w3.org/2000/svg" viewBox="-0.5 -0.5 15 15" id="Medal-Achievement--Streamline-Atlas" height="24px" width="24px"><desc>Medal Achievement Streamline Icon: https://streamlinehq.com</desc><defs></defs><g id="achievment"><path d="M11.668750000000001 5.10625a4.14375 4.14375 0 0 1 -1.7874999999999999 3.4125 4.15625 4.15625 0 0 1 -4.7625 0 4.1625 4.1625 0 1 1 6.550000000000001 -3.4125Z" fill="none" stroke="#000000" stroke-linecap="square" stroke-miterlimit="10" stroke-width="1"></path><path d="m7.5 2.76875 0.7374999999999999 1.5375 1.6437499999999998 0.25L8.6875 5.75l0.28125 1.6875L7.5 6.643750000000001 6.03125 7.4375l0.28125 -1.6875 -1.1937499999999999 -1.1937499999999999 1.6437499999999998 -0.25L7.5 2.76875z" fill="#000000" stroke-width="1"></path><path d="M9.88125 8.51875v4.91875L7.5 11.65 5.1187499999999995 13.4375v-4.91875a4.15625 4.15625 0 0 0 4.7625 0Z" fill="none" stroke="#000000" stroke-linecap="square" stroke-miterlimit="10" stroke-width="1"></path></g></svg>